<?xml version="1.0" encoding="utf-8"?>
<!-- Generator: Adobe Illustrator 30.3.0, SVG Export Plug-In . SVG Version: 9.03 Build 0)  -->
<svg version="1.0" id="Layer_1" xmlns="http://www.w3.org/2000/svg" xmlns:xlink="http://www.w3.org/1999/xlink" x="0px" y="0px"
	 viewBox="0 0 1611.54 976.13" style="enable-background:new 0 0 1611.54 976.13;" xml:space="preserve">
<g>
	<path d="M768.19,0l7.55,7.22c18.51,12.06,43.1-2.88,57.74,6.74l21.23,13.96c4.56,3,12.27,7.67,15.58,11.06l12.81,13l13.95,13.96
		l13.88,13.89l14,14.01l12.44,12.63l23.21,23.95l27.59,30.7c15.18,16.9,30.9,32.1,45.98,48.7l47.88,52.7l12.77,14.67l12.09,12.85
		l31.55,35.32l18.57,20.02c6.92,7.46,11.49,15.97,19.55,22.45l29.41,23.65l15,12.13l28.13,22.22l18.98,14.78l10.27,6.33l14.13,13.97
		l13.94,11.47l17.65,15.21l18.23,15.46l12.9,11.71l81.82,82.24c9.56,9.61,19.74,19.36,31.45,26.99l19.62,12.79l29.72,15.28
		l28.98,15.56c19.66,10.55,41.92,27.9,50.09,50.29l8.22,35.5l1.71,6.18c0.43,1.55,2.81,2.32,4.73,2.38v25.03l-13.44,17.28
		l-16.84,25.35c-8.21,12.36-21.89,26.1-33.83,33.92l-36.06,23.61c-7.19,9.89-21.75,6.48-30.58-0.39
		c-9.83,0.88-20.56,0.13-27.17-4.95l-18.56-14.26l-14.14,5.55l-14.22-7.47c-3-1.57-9.33,6.7-10.66,9.47l6.59,16.94
		c2.36,6.05,14.88,9.54,21.88,11.94c1.81,0.62,5.65,5.61,7.23,4.65l6.44-3.88c1.1,0.31,7.78,8.03,5.72,10.29
		c-1.76,1.94-6.97,7.66-5.65,6.21l-20-4.72c-2.01-0.47-4.18-8.83-5.65-7.48l-7.03,6.47l-27.73-28.02
		c-4.58,3.29-10.81,13.54-13.96,19.42c-5.31,3.14-18.06,5.34-17.94,15.89l0.19,18.15c0.04,3.31-2.6,10.8-5.9,10.51
		c-2.75-0.24-9.24-2.37-11.55-3.96l-6.01-4.13c-1.27-0.87,0.15-6.02,0.9-7.55l9.22-18.99c11.02-22.69-8.47-22.32-9.16-44.01
		l-6.25,7.15l-1.82-24.33l-5.13-5.87c-0.72-0.82,2.44-5.39,3.18-4.56l4.86,5.4c0.66,0.73,3.48-1.36,3.82-2.28
		c0.98-2.63,2.44-10.58-0.11-10.46l-10.27,0.45c-8.8,0.38-15.14,2.64-24.24,7.88l-13.31-12.7l0.69-22.12
		c-1.49-0.8-7.02-1.49-7.53,0.47l-2.17,8.3l-5.99,24.64c-0.07,0.6-6.67,0.88-6.72-0.97l-0.19-7.4c-0.08-2.93-0.32-11.34-3.23-11.51
		l-15.08-0.89l-15.5-13.96c15.26-13.87,43.67,0.01,42.8-16.13c-0.53-9.77-16.28-4.01-15.67-30.18c-8.42-4.81-12.33-9.28-17.45-16.01
		l-12.67-16.68c-4.56,8.62-19.94,11.9-22.67,5.95c-8.54-18.57-27.02-27.33-10.98-40.26l-17.22-13.52l-3.76,5.01
		c8.22,8.31,9.64,17.98,7.35,29.42l-18.5,2.83l8.95-13.5c1.67-2.53-4.23-9.24-7.54-12.85c-5.82,5.14-11.79,15.13-11.65,21.27
		c0.39,16.29,18.36,30.4,22.3,30.03c3.56-0.33,10.33-4.64,13.41-7.11c0.87-4.82,1.2-7.79,3.68-8.24c2.67-0.49,10.74,2.59,9.44,4.74
		l-4.73,7.78l14.93,17.1c6.6,6.99,21.72-2.08,21.62-12.58c12.67,11.37-7.84,16.05-15.94,32.08l2.27,2.79l8.96-2.3
		c2.15-0.55,2.04-8.31,3.99-9.31l16.52-8.47c13.02,15.45-14.26,9.55-13.51,39.53l-4.41-9.97c-0.9-2.03-6.51-2.29-11.01-2.56
		l-0.35-4.51l-3.05-3.48l-34.56-26.95l6.02,15.85l2.5,7.55c0.5,1.49-4.02,3.69-5.84,3.81l-22.52-26.74l-39.57-38.78l-35.92-31.64
		l-16.55-11.07l-21.12-23.01c-3.76-4.09-10.12-8.11-14.03-10.83l-12.48-12.96c-11.67-12.12-22.83-25.75-35.85-35.46l-13-9.69
		c-11.72-6.43-22.97-16.55-27.63-29.23c-12.65-3.21-23.02-14.49-19.79-29.27c-11.73-2.73-21.96-8.41-29.75-15.86l-8.43,4.57
		c-1.3,0.71-2.41-5.76-1.37-6.81l5.3-5.37c-1.1-0.02-7.93-0.86-7.76-3.07l0.74-9.63c-10.92-8.82-10.73-27.75-34.21-31.19
		l-1.08,14.69c-0.2,2.73-7.75,2.85-9.77,0.97c-1.61-1.5-2.58-5.12-3.78-9.43l-13.95-15.05l-5.76,4.83
		c-10.07-19.53-27.48-18.32-24.22-34.49l9.65,6.23c1.25,0.81,4.69-3.57,3.72-4.03c-2.41-1.68-7.68-8.41-5.43-9
		c1.69-0.44,6.52-1.27,8.25-1.25l10.08,0.14c1.11,0.02,0.84-3.53,0.73-6.02l-12.83-7.66l-1.57,11.4c-0.24,1.74-6.38,0.51-7.48-0.85
		l-3.84-4.77l-37.3,33.2l-82.07,78.97l-67.69,63.96l-20.43,17.76l-23.91,23.24l-12.93,12.57l-14.69,12.74l-56.33,52.27l-11.8,10.23
		l-30.33,28.45l-35.54,31.26l-11.17,11.31l-23.36,21.32l-17.9,15.16l-18.44,15.21l-35.03,28.5l-12.92,10.36l-35.29,32.93
		c-10.58,3.06-14.63,5.32-21.37,12.36l-13.64,14.24l-13.89,14.5l-17.13,5.84c-3.04,5.65-5.04,9.03-7.87,9.99
		c-3.48,1.17-8.47-4.27-8.02-7.88c0.43-3.46,5.3-6.94,9.96-7.31c2.1-0.17,4.72-7.59,2.77-8.52l-9.47-4.51l-3.86-21.03
		c-1.37-7.45-11.81-13.9-18.27-16.75l-7.15-23.57c-2.42-7.97-6.39-23.91-13.17-27.4c-23.22-11.96-13.7-28.15-19.75-28.21
		l-10.34-0.11c-5.01-0.05-9.68-2.95-13.21-8.62l-19.05,0.36c-6.8-7.7-13.63-9.17-25.22-8.4l1.52-14.52
		c10.03,12.24,35.61,12.45,42,3.76c3.95-5.37,4.38-17.23,3.02-23.3c-12.19,11.94-22.23,2.86-30.54,7.94l-11.46,7.01
		c-2.28,1.39-10.12-3.72-10.43-6.4l-2.65-23.19c-8.19-1.76-12.85-4.83-13.86-11.42c-1.8-11.75,17.16-14.65,14.07-19.19l-5.11-7.51
		l-4.63-6.8c-0.96-1.41,3.68-5.71,3.78-7.44l1.5-24.9l10.64,4.91l7.27-3.4l15.79,6.8l-0.5-16.7l11.75,16.34l5.55-20.51
		c0.94-3.48,5.1-10.87,6.88-13.95c34.25-8.37,38.43-37.12,65.15-41.15l12.78-13.09l5.42-10.89l22.81-20.9
		c2.49-0.91,11.12-0.25,12.54-2.54l5.93-9.6c14.93-3.24,27.75-10.51,33.82-24.43c8.71-10.59,17.14-18.91,29.05-23.9
		c0.52-10.9,9.32-17.03,20.49-19.03l4.19-16.55l15.53-13.95l13.57-13.21l37.76-32.1l9.79-10.13c10.89-11.28,21.29-21.33,33.32-30.95
		c12.26-9.8,24.86-22.44,34.28-34.27l11.2-14.08l14.99-18.78l15.95-17.16l12.68-12.82l13.92-14.07l13.68-13.9l14.93-15.75
		l11.87-13.23l82.85-83.98l71.31-72.92c0.32-6.26,1.82-16.27,5.5-19.11c3.68-2.84,14.02-3.37,19.03-3.81
		C725.8,10.21,739.37,10.32,745.93,0H768.19z M956.93,380.87l-3.69-6.64c12.43-12.3-5.55-34.24-6.3-34.24l-12.02-0.06
		c6.32-21.55-16.16-19.22-21.57-35.32c-5.09-4.55-16.4,10.96-9.77,16.33c12.61,10.21,12.09,23.95,39.75,33.98l0.71,25.96
		L956.93,380.87z M879.71,338.42l-19.83-16.67l0.49,22.24L879.71,338.42z M1170.36,613.41c-14.7-1.06-24.77-6.75-24.04-20.78
		l-17.63-3.82c-3.22-8.38-6.58-13.38-12.39-18.38l-21.27-18.31l-14.71-12.68l-10.46-9.02l-11.53,3.13l4.21-14.47
		c-10.32,1.85-12.92,3.83-20.82,10.23c1.6-14.65-12.46-28.79-25.37-30.98c-3.62,3.64-7.67,7.43-10.74,8.62
		c-3.58,1.39-9.07-8.55-6.76-10.93c1.92-1.98,7.31-4.97,10.88-7.19c0.11-7.74-10.52-17.1-19.21-18.06l1.98,15.61
		c-1.53-0.07-5.3-0.33-6.12-1.71l-2.98-4.99c-1.27-2.12-6.62,2.01-10.42,5.07L970.04,472l-13.91-11.68
		c-7.8-6.55-13.34-14.26-18.42-23.91l-22.64-15.26l-8.69-13.04c7.59-1.9,12.1-15.17,7.49-20.98c-2.77-1.48-9.99,1.21-13.86,4.24
		c-1.96,1.53-6.57-2.14-9.26-5.75c-11.4,17.63-4.89,33.26,7.03,46.57l13.01,14.53l14.11,14.21l14.08,14
		c5.62,5.59,7.04,15.76,21.13,28.44l13.12,11.8l14.89,13.02c8.06,7.05,16.09,11.95,27.21,15.11l7.42,5.49l14.9,9.65l16.52,12.54
		c5.56,4.22,11.73,11.86,15.62,17.2l13.81-6.32l-5.7-5.74c-1.11-1.12,0.7-6.28,1.1-5.83l22.23,7.1l-8.4,13.34
		c1.14,6.21,8.34,14.9,15.6,17.45c4.96,9.91,11.03,16.21,21.27,20.89c3.11,2.78,12.43,6.98,14.68,3.79
		c2.18-3.09,6.21-8.77,8.49-7.47c1.83,1.04,6.1,4.23,7.27,6.02l5.19,7.94c0.93,1.42,7.53,0.17,9.1-0.54
		C1177.43,632.33,1176.29,617.06,1170.36,613.41z M1098.25,458.49l-2.03-15.13c-26.16-1.22-28.48-25.89-47.21-20.06l10.47,17.06
		l15.27,5.19C1077.46,455.27,1085.02,460.63,1098.25,458.49z M1213.7,620.9l18.12,18l7.23-14.76l0.65-10.04
		c0.12-1.92,5.55-3.54,7.24-4.83l9.5-7.24c1.86-1.42-2.32-10.32-3.11-9.94c-1.14,4.72-2.13,12.12-5.07,11.87l-16.54-1.43
		l15.07-16.27l-14.73-12.44l-2.82-9.49l-14.95-11.23c-10.72-6.48-21.71-14.52-26.17-27.91c-4.58-3.03-14.16-5.08-19.06-4.64
		c0.15,7.81,0.9,16.78,4.47,18.19l14.26,5.6c1.61,0.63,1.92,8.1,1.45,9.76c-0.48,1.66-4.6,2.48-5.66,1.11l-3.69-4.8
		c-1.27-1.65-7.49-3.82-8.54-1.99l-4.37,7.66l-10.14-5.62c-2.23-1.24-4.43,11.36-1.93,11.88l6.96,1.44l13.62,16.02
		c1.32,1.55,6.77,4.11,8.79,4.73c2,0.61,5.18-4.77,3.84-6.38l-5.86-7.03c2.06-7.88,11.13-16.85,20.3-21.62l6.88,19
		c3.6,9.95,0.33,19.46,16.52,25.3l-9.54,9.58c-2.23,2.24-8.54-0.96-13.5-5.17C1202.78,604.94,1206.85,614.1,1213.7,620.9z
		 M1037.97,603.26l-7.51-4.74c-1.21-0.76-4.25,2.45-3.58,3.69l3.59,6.63l13.52,17.92c3.02-5.56,4.78-11.15,3.63-14.49
		C1046.66,609.48,1040.97,605.16,1037.97,603.26z M1067.27,628.57l-11.79-7.99c-0.15,3.93-0.62,12.51,1.31,15.2
		c2.48,3.46,15.96,11.41,21.46,12.5c2.57,0.51,6.61-4.97,8.3-7.04l4.44-5.45C1093.01,633.31,1081.66,638.31,1067.27,628.57z
		 M1380.53,658.98l-13.43-8.27l-18.37-12.86l-6.18-4.27c-1.38-0.96-4.64,4.44-3.59,5.68l10.49,12.31l24.66,14.92L1380.53,658.98z
		 M1195.77,653.78l-17.93-11.85c-0.91,6.86,0.23,13.83,3.78,16.77c5.56,4.6,16.83,5.17,23.41,1.83c1.61-0.82,0.61-7.35-1.19-7.24
		L1195.77,653.78z M1113.73,671.8c9.8-2.33,18.54-7.42,19.07-18.97l-17.66,4.68l-16.09,22.66l9.59,1.07
		C1110.82,681.47,1112.39,674.86,1113.73,671.8z M198.61,809.36c10.7-7.03,13-23.53,20.68-31.31l13.81-13.99l12.72-12.25l39.6-35.58
		l19.6-16.29l38.31-36.19c-18.58-7.23-51.01,6.4-54.47,19.72c-3.63,13.98-9.22,22.96-21.19,32.12c-12.85,9.84-19.52-5.2-33.98,10.1
		c-9.99,10.57-21.57,19.6-29.71,31.39l-13.61,19.7l-8.57,16.46C185.16,798.47,193,806.1,198.61,809.36z M1282.1,682.83
		c-1.79-9.92-2.77-15.77-5.67-15.4l-10.26,1.3c0.45,5.02,2.67,13.61,5.56,13.72C1274.63,682.56,1282.26,682.84,1282.1,682.83z
		 M1238.57,737.14c-0.06-11.02-2.12-14.98-6.08-22.22c8.73-7.52,10.04-18.04,7.15-30.33l-8.6,5.06l-1.08-11.39
		c-0.11-1.14-19.76-12.17-22.44-8.1l-6.54,9.91c-1.42,2.15-9.28,5.15-9.33,2.62l-0.24-13.39l-10.28,9.41l20.12,19.93l2.39-14.7
		c0.42-2.58,10.22,0.09,12.52,1.36c-5.01,8.26-8.7,18.51-2.89,28.49c4.32-3.89,5.12-7.58,7.83-16.58l9.91,10.94
		c2.42,2.67-8.62,9.49-11.78,10.25L1238.57,737.14z M220.5,815.56c14.85-17.95,31.44-32.64,49.62-48.09
		c5.19-4.41,9.4-13.73,11.22-18.43c7.97-2.18,13.33-6.05,19.78-11.32l21.36-17.48l21.46-21.01l4.62-5.19
		c0.77-0.86-1.02-4.83-2.16-4.63c-1.14,0.2-6.27,1.55-7.34,2.35l-36.57,27.27l-10.97,8.77l-35.66,31.05l-33.41,33.92
		c2.86,2.64,6.43,5.71,5.24,6.35c-1.19,0.64-5.91,2.84-6.86,3.76l-18.79,17.98c2.63,2.07,10.41,4.43,12.23,2.24L220.5,815.56z
		 M186.06,742.3l12.48-12.79l13.67-14.05l10.76-15.55c-6.48-5.85-12.47,0.89-18.49,5.12l-28.91,20.3l-15.75,11.34
		c-4.56,3.28,2.31,16.05,10.01,18.29L186.06,742.3z M1379.16,703.93c-15.48,1.43-24.45-9.95-41.63-5.1l14.08,16.79
		c12.61,15.04,30.49,24.74,51.54,12.46C1386.49,726.07,1379.88,715.48,1379.16,703.93z M1337.13,775.45l-20.43-2.63
		c-0.32-2.21-0.73-9.51,1.42-10.2l10.34-3.32c3.08-0.99,2.84-10.42,0.84-13.13c-1.92-2.61-7.55-6.47-10.42-4.96
		c-2.37,1.24-8.32,5.98-8.96,4l-2.75-8.47c-1.61-4.97-16.11-6.8-20.15-3.47l-15.54,12.84c-1.48,0.92-4.85-8.87-2.63-9.95l8.06-3.92
		l4.2-10.9c0.97-2.52-7.31-3.91-10.16-3.21c-7.92,1.94,0.79,15.27-10.92,16.45c-2.56,0.26-7.23-3.73-6.68-6.28
		c0.44-2.04,2.82-6.73,4.74-7.69l6.89-3.43c1.49-0.74,1.5-5.34,1.51-7.4l-18.83-0.11l-5.89,19.7c9.39,5.9,10.55,8.77,13.91,15.96
		l7.18,15.34l15.04,1.87c2.82,0.35,4.38,6.16,6.1,10.04l20.97,2.97l19.59,29.67l-2.22,18.43l8.66-8.41
		c3.17-3.08,8.89-14.49,5.46-17.28l-11.78-9.58C1331,784.15,1337.11,778.24,1337.13,775.45z M346.21,747.38
		c1.21-1.19,3.25-4.81,3.82-6.11c0.57-1.3-5.05-2.12-6.02-1.09l-3.16,3.39c-11.01,5.43-20.55,11.34-21.59,23.88l13.85-7.26
		L346.21,747.38z M265.37,815.86l11.29-5.7l31.01-32.28c0.3-1.33-8.79-4-10.26-2.06l-5.99,7.91l-15.47,15.33l-19.41,14.94
		c-1.46,1.12-1.2,10.3,0.61,9.93l5.55-1.13C263.89,822.56,263.94,821.43,265.37,815.86z M1359.81,814.98
		c-1.67,1.88-1.8,10.43,0.35,10.48l10.08,0.25c14.69-12.2,22.19-32.15,17.86-50.07c-2.47,9.53-5.11,13.32-10.54,19.41
		L1359.81,814.98z M1418,798.7l19.88-14.99c-5.04-4.17-13.45-2.84-17.19,1.51l-26.99,31.42l2.26,6.43c0.37,1.07,2.62-2.21,3.53-3.37
		C1408.28,808.42,1415.23,810.38,1418,798.7z M224.04,853.91c7.09-1.25,13.39-5.13,16.63-9.24l10.52-13.33l-21.45,7.9L224.04,853.91
		z"/>
	<path d="M1387.02,969.27c2.52,4.43-18.6,8.46-38.06-2.58l-11.74-3.34l19.06-19.08c2.2,6.52,4.67,13.5,7.98,16.63
		C1373.41,969.53,1381.73,959.98,1387.02,969.27z"/>
	<path d="M1081.54,559.4l-11.45,10.44l-4.03-7.96l-3.82-7.55c-1.12-2.2,6.22-3.97,8.86-3.9l10.23,0.27
		C1083.1,550.74,1082.85,558.21,1081.54,559.4z"/>
</g>
</svg>
